<?xml version="1.0" standalone="no"?>
<!DOCTYPE svg PUBLIC "-//W3C//DTD SVG 20010904//EN"
 "http://www.w3.org/TR/2001/REC-SVG-20010904/DTD/svg10.dtd">
<svg version="1.0" xmlns="http://www.w3.org/2000/svg"
 width="104.000000pt" height="40.000000pt" viewBox="0 0 104.000000 40.000000"
 preserveAspectRatio="xMidYMid meet">

<g transform="translate(0.000000,40.000000) scale(0.100000,-0.100000)"
fill="#000000" stroke="none">
<path d="M410 275 c0 -30 5 -55 10 -55 6 0 10 25 10 55 0 30 -4 55 -10 55 -5
0 -10 -25 -10 -55z"/>
<path d="M460 320 c0 -5 5 -10 10 -10 6 0 10 5 10 10 0 6 -4 10 -10 10 -5 0
-10 -4 -10 -10z"/>
<path d="M240 270 c0 -27 5 -50 10 -50 6 0 10 11 10 24 0 18 7 26 23 29 l22 4
-22 2 c-13 0 -23 7 -23 15 0 8 10 17 23 19 16 3 13 5 -10 6 l-33 1 0 -50z"/>
<path d="M332 288 c-27 -27 -1 -69 40 -67 7 0 3 4 -9 9 -31 12 -29 30 2 30 28
0 34 24 9 34 -22 8 -28 8 -42 -6z m43 -8 c3 -5 -3 -10 -14 -10 -12 0 -21 5
-21 10 0 6 6 10 14 10 8 0 18 -4 21 -10z"/>
<path d="M460 260 c0 -22 5 -40 10 -40 6 0 10 18 10 40 0 22 -4 40 -10 40 -5
0 -10 -18 -10 -40z"/>
<path d="M510 246 c0 -31 5 -56 10 -56 6 0 10 6 10 14 0 8 10 16 21 18 44 6
51 62 10 76 -10 3 -10 0 0 -16 15 -23 6 -52 -16 -52 -12 0 -16 8 -13 32 2 19
-2 33 -9 35 -10 3 -13 -11 -13 -51z"/>
<path d="M622 288 c-27 -27 -1 -69 40 -67 7 0 3 4 -9 9 -31 12 -29 30 2 30 28
0 34 24 9 34 -22 8 -28 8 -42 -6z m43 -8 c3 -5 -3 -10 -14 -10 -12 0 -21 5
-21 10 0 6 6 10 14 10 8 0 18 -4 21 -10z"/>
<path d="M470 95 c0 -30 5 -55 10 -55 6 0 10 25 10 55 0 30 -4 55 -10 55 -5 0
-10 -25 -10 -55z"/>
<path d="M246 124 c-9 -8 -16 -24 -16 -34 0 -36 58 -68 74 -41 3 4 -5 6 -18 4
-18 -4 -26 0 -31 16 -11 36 4 64 31 58 13 -2 21 0 18 4 -8 14 -41 10 -58 -7z"/>
<path d="M358 113 c24 -5 29 -18 10 -26 -10 -4 -10 -6 0 -6 6 -1 12 -10 12
-21 0 -11 5 -20 10 -20 6 0 10 15 10 34 0 34 -14 47 -48 45 -10 -1 -8 -4 6 -6z"/>
<path d="M432 108 c-7 -7 -12 -20 -12 -29 0 -19 27 -45 37 -35 3 3 1 6 -5 6
-16 0 -15 43 0 58 7 7 8 12 2 12 -5 0 -15 -5 -22 -12z"/>
<path d="M532 108 c-27 -27 -1 -69 40 -67 7 0 3 4 -9 9 -31 12 -29 30 2 30 28
0 34 24 9 34 -22 8 -28 8 -42 -6z m43 -8 c3 -5 -3 -10 -14 -10 -12 0 -21 5
-21 10 0 6 6 10 14 10 8 0 18 -4 21 -10z"/>
<path d="M610 81 c0 -23 5 -41 10 -41 6 0 10 14 10 30 0 17 0 33 1 37 0 4 -4
9 -10 11 -7 2 -11 -12 -11 -37z"/>
<path d="M658 108 c7 -7 12 -25 12 -40 0 -15 5 -28 10 -28 6 0 10 13 10 28 0
28 -16 52 -34 52 -6 0 -5 -5 2 -12z"/>
<path d="M738 113 c24 -5 29 -18 10 -26 -10 -4 -10 -6 0 -6 6 -1 12 -10 12
-21 0 -11 5 -20 10 -20 6 0 10 15 10 34 0 34 -14 47 -48 45 -10 -1 -8 -4 6 -6z"/>
<path d="M332 63 c2 -10 12 -19 23 -20 11 -2 14 0 8 3 -7 3 -13 12 -13 20 0 8
-5 14 -11 14 -6 0 -9 -8 -7 -17z"/>
<path d="M712 63 c2 -10 12 -19 23 -20 11 -2 14 0 8 3 -7 3 -13 12 -13 20 0 8
-5 14 -11 14 -6 0 -9 -8 -7 -17z"/>
</g>
</svg>
